<?xml version="1.0" standalone="no"?>
<!DOCTYPE svg PUBLIC "-//W3C//DTD SVG 20010904//EN"
 "http://www.w3.org/TR/2001/REC-SVG-20010904/DTD/svg10.dtd">
<svg version="1.0" xmlns="http://www.w3.org/2000/svg"
 width="1024.000000pt" height="1024.000000pt" viewBox="0 0 1024.000000 1024.000000"
 preserveAspectRatio="xMidYMid meet">

<g transform="translate(0.000000,1024.000000) scale(0.100000,-0.100000)"
fill="#000000" stroke="none">
<path d="M3435 8092 c-62 -39 -81 -89 -64 -169 15 -64 16 -61 -121 -172 -214
-172 -443 -421 -596 -648 -123 -182 -281 -509 -348 -718 -56 -177 -109 -416
-128 -574 -16 -138 -16 -569 0 -688 23 -172 84 -449 123 -566 55 -159 160
-383 258 -549 147 -250 425 -574 661 -770 385 -322 875 -542 1397 -628 64 -11
122 -25 129 -31 17 -14 20 -170 4 -200 -10 -18 -23 -19 -181 -19 -190 0 -251
-11 -352 -61 -33 -17 -81 -50 -107 -75 -46 -43 -48 -44 -116 -44 -114 0 -222
-40 -258 -95 -24 -37 -20 -99 8 -132 l24 -28 1310 0 c1274 0 1310 1 1331 19
16 14 21 31 21 68 0 27 -5 58 -10 68 -25 47 -156 90 -272 90 -25 0 -42 9 -73
41 -47 49 -105 84 -194 117 -60 23 -84 26 -257 30 l-191 4 -7 105 c-5 70 -4
109 3 116 6 6 32 14 58 18 41 5 137 25 348 69 36 8 207 66 260 89 11 5 38 15
60 24 76 28 301 127 331 146 33 20 74 92 74 129 0 41 -20 73 -55 87 -53 23
-90 18 -168 -20 -39 -19 -74 -35 -78 -35 -4 0 -36 -13 -71 -29 -35 -16 -81
-35 -103 -42 -22 -7 -44 -16 -50 -20 -20 -14 -220 -71 -344 -99 -209 -47 -364
-64 -591 -64 -223 0 -319 9 -540 54 -294 60 -521 139 -733 256 -479 263 -868
672 -1112 1169 -203 413 -294 852 -265 1289 36 561 209 1035 537 1475 135 181
506 541 557 541 13 0 119 -147 114 -159 -2 -5 -49 -45 -105 -90 -226 -181
-356 -324 -516 -566 -301 -458 -432 -935 -398 -1451 26 -383 123 -720 302
-1047 205 -373 518 -697 884 -914 106 -63 308 -164 408 -204 81 -32 278 -86
403 -111 227 -44 809 -26 892 28 43 28 18 134 -45 184 -27 22 -31 22 -183 14
-218 -13 -460 -10 -560 4 -314 47 -671 197 -953 400 -186 134 -410 364 -537
552 -174 258 -284 528 -347 849 -24 121 -27 160 -27 356 -1 164 4 249 17 335
23 146 86 377 130 472 19 40 37 84 42 96 4 13 9 21 12 19 2 -3 -9 -36 -25 -73
-29 -70 -44 -131 -62 -263 -11 -79 -6 -109 52 -280 44 -134 50 -131 43 22 -6
119 -5 137 9 137 25 0 30 -21 28 -111 -1 -63 3 -102 17 -142 11 -30 17 -58 14
-60 -17 -17 52 -113 107 -150 19 -13 67 -34 106 -46 42 -13 90 -38 120 -61 75
-60 100 -72 167 -79 14 -2 7 -21 -8 -21 -17 0 -19 -18 -5 -54 15 -42 47 -66
84 -66 69 0 117 -35 143 -104 10 -27 8 -37 -16 -81 -49 -87 -53 -113 -36 -190
33 -143 104 -241 256 -357 122 -92 151 -155 153 -330 1 -66 7 -122 13 -130 6
-7 14 -28 18 -46 4 -18 13 -45 21 -60 8 -15 14 -51 14 -80 0 -33 4 -51 10 -47
6 3 10 -3 10 -14 0 -11 7 -35 14 -53 8 -18 24 -65 36 -105 19 -63 25 -73 52
-82 17 -6 42 -11 55 -11 20 0 22 3 13 20 -6 12 -8 47 -4 91 6 60 13 79 40 114
18 24 49 72 70 108 28 48 54 78 100 111 57 42 64 53 95 128 38 95 86 153 146
179 35 15 47 28 74 81 17 35 38 92 45 128 9 45 21 72 38 86 19 17 26 37 35
109 11 83 11 89 -8 109 -12 12 -21 28 -21 34 0 33 -146 77 -221 67 -44 -6 -48
-5 -65 24 -11 18 -34 36 -60 46 -57 22 -72 42 -76 100 -3 48 -5 51 -48 72 -25
12 -69 44 -97 71 -48 44 -53 53 -53 90 l0 42 -117 0 c-153 1 -254 14 -309 42
l-44 22 -55 -56 c-54 -55 -54 -55 -107 -51 -80 7 -150 31 -146 51 2 10 18 21
36 27 31 9 32 11 32 62 0 45 -4 55 -25 69 -15 10 -36 14 -53 11 -21 -4 -34 1
-60 26 l-33 32 42 36 43 36 -20 33 c-24 41 -37 46 -62 23 -10 -10 -27 -23 -38
-29 -12 -7 -19 -23 -19 -41 0 -26 -3 -28 -27 -25 -16 2 -28 9 -28 15 0 5 -9 2
-19 -7 -17 -16 -22 -16 -57 -1 -21 9 -41 20 -44 25 -6 9 11 147 25 212 14 61
165 145 236 131 34 -6 53 -42 46 -87 -6 -38 7 -50 35 -32 13 8 28 5 62 -11 38
-19 46 -20 56 -8 15 18 5 33 -26 45 -24 9 -33 30 -14 30 5 0 19 20 30 44 22
49 69 101 101 111 16 5 19 12 14 35 -5 25 -1 32 39 59 24 17 56 35 70 41 27
10 29 17 30 85 1 34 4 39 21 36 57 -10 127 -12 138 -3 7 5 37 17 68 26 58 16
100 49 83 66 -5 5 -36 19 -69 30 -59 20 -105 53 -105 75 0 7 8 19 18 28 15 13
19 14 36 1 27 -20 49 -18 64 6 20 33 59 43 116 29 62 -15 79 -28 48 -36 -21
-5 -23 -10 -20 -66 3 -54 5 -61 25 -62 13 -1 32 -10 43 -20 11 -10 21 -16 23
-14 1 2 9 18 17 34 10 19 27 34 48 40 28 8 32 14 32 42 0 26 -6 36 -30 48 -16
9 -30 22 -30 31 0 38 -43 95 -99 134 -33 22 -62 44 -66 50 -3 5 -8 39 -12 75
-3 36 -10 66 -14 66 -13 2 -22 5 -42 13 -9 5 -33 5 -53 1 -45 -8 -74 15 -74
57 0 24 -6 32 -35 44 -19 7 -44 14 -57 14 -16 0 -19 3 -11 11 23 23 -23 109
-58 109 -15 0 -10 -37 6 -50 10 -8 15 -30 15 -60 0 -61 -8 -84 -25 -70 -12 10
-21 -50 -30 -193 -3 -57 -9 -65 -36 -49 -15 10 -24 10 -34 2 -11 -9 -21 -6
-44 11 -17 12 -33 30 -36 39 -3 9 -30 38 -60 64 -46 39 -55 53 -55 80 0 22 8
40 25 56 14 13 31 43 36 66 16 61 56 105 104 113 37 6 40 9 43 41 2 19 -2 52
-9 72 -10 31 -9 44 5 80 9 24 16 55 16 70 0 23 11 31 85 68 47 23 88 41 90 38
10 -10 -16 -73 -42 -100 -15 -15 -25 -28 -22 -29 2 0 55 -2 117 -3 86 -2 116
-6 123 -17 22 -35 -1 -84 -36 -75 -20 5 -25 1 -35 -29 -7 -20 -22 -40 -37 -47
-40 -19 -39 -34 6 -79 23 -22 39 -44 36 -49 -7 -11 35 -98 49 -103 26 -10 53
15 86 78 19 36 47 75 62 86 21 16 28 29 28 55 0 27 -4 34 -19 34 -30 0 -37 22
-13 38 28 18 28 42 2 42 -11 0 -20 4 -20 9 0 4 -12 20 -26 34 -23 23 -24 28
-10 33 9 3 24 3 34 0 9 -4 0 9 -21 28 -20 20 -43 36 -50 36 -33 0 -76 32 -87
65 l-11 34 -46 -20 c-25 -11 -48 -18 -50 -16 -7 8 162 75 262 105 518 154
1024 108 1535 -140 184 -89 237 -102 322 -76 72 21 113 103 71 140 -28 23
-129 82 -228 131 -226 114 -475 193 -765 244 -148 25 -571 25 -710 -1 -230
-43 -450 -114 -642 -208 -96 -46 -121 -53 -135 -36 -6 7 -61 96 -123 198 -143
237 -193 290 -272 290 -18 0 -46 -8 -63 -18z m545 -727 c0 -2 -33 -25 -72 -51
-106 -68 -157 -102 -171 -114 -6 -6 -24 -20 -40 -31 -15 -11 -24 -25 -21 -31
4 -7 2 -8 -4 -4 -14 8 -82 -51 -82 -72 0 -9 -3 -12 -7 -9 -11 12 -42 -24 -36
-41 4 -13 3 -14 -5 -4 -7 10 -30 -9 -93 -78 -46 -50 -89 -103 -96 -118 -7 -15
-12 -23 -13 -18 0 12 -80 -94 -81 -108 -1 -6 -1 -18 0 -26 1 -11 0 -12 -6 -3
-6 8 -28 -19 -67 -82 -65 -105 -86 -127 -35 -37 179 315 447 596 748 784 80
50 81 51 81 43z m-145 -195 c-3 -5 -12 -10 -18 -10 -7 0 -6 4 3 10 19 12 23
12 15 0z m600 -29 c-3 -6 -11 -11 -16 -11 -5 0 -4 6 3 14 14 16 24 13 13 -3z
m-735 -211 c0 -5 -2 -10 -4 -10 -3 0 -8 5 -11 10 -3 6 -1 10 4 10 6 0 11 -4
11 -10z m-40 -50 c12 -7 10 -9 -8 -7 -12 0 -22 5 -22 9 0 11 12 10 30 -2z
m-317 -215 c-3 -9 -8 -14 -10 -11 -3 3 -2 9 2 15 9 16 15 13 8 -4z m47 -27 c0
-6 -6 -5 -15 2 -8 7 -15 14 -15 16 0 2 7 1 15 -2 8 -4 15 -11 15 -16z m220 8
c0 -3 -4 -8 -10 -11 -5 -3 -10 -1 -10 4 0 6 5 11 10 11 6 0 10 -2 10 -4z m195
-26 c3 -5 1 -10 -4 -10 -6 0 -11 5 -11 10 0 6 2 10 4 10 3 0 8 -4 11 -10z
m-540 -38 c-3 -3 -11 0 -18 7 -9 10 -8 11 6 5 10 -3 15 -9 12 -12z m187 11
c-6 -2 -9 -10 -6 -15 4 -7 2 -8 -5 -4 -13 9 -5 26 12 25 9 0 8 -2 -1 -6z m173
-24 c11 -16 1 -19 -13 -3 -7 8 -8 14 -3 14 5 0 13 -5 16 -11z m335 -63 c0 -2
-7 -6 -15 -10 -8 -3 -15 -1 -15 4 0 6 7 10 15 10 8 0 15 -2 15 -4z m-557 -31
c-3 -9 -8 -14 -10 -11 -3 3 -2 9 2 15 9 16 15 13 8 -4z m-298 -44 c-21 -43
-29 -39 -8 4 9 19 18 33 21 31 2 -2 -4 -18 -13 -35z m212 -93 c-3 -8 -6 -5 -6
6 -1 11 2 17 5 13 3 -3 4 -12 1 -19z m408 -18 c3 -5 1 -10 -4 -10 -6 0 -11 5
-11 10 0 6 2 10 4 10 3 0 8 -4 11 -10z m-510 -60 c5 -17 4 -22 -3 -15 -5 6
-13 21 -17 35 -5 17 -4 22 3 15 5 -5 13 -21 17 -35z m-110 0 c3 -5 1 -10 -4
-10 -6 0 -11 5 -11 10 0 6 2 10 4 10 3 0 8 -4 11 -10z m670 -9 c3 -5 2 -12 -3
-15 -5 -3 -9 1 -9 9 0 17 3 19 12 6z m-738 -58 c-3 -10 -5 -4 -5 12 0 17 2 24
5 18 2 -7 2 -21 0 -30z m623 17 c0 -5 -5 -10 -11 -10 -5 0 -7 5 -4 10 3 6 8
10 11 10 2 0 4 -4 4 -10z m-262 -105 c-3 -3 -9 2 -12 12 -6 14 -5 15 5 6 7 -7
10 -15 7 -18z m198 -20 c9 -8 11 -15 6 -15 -5 0 -15 7 -22 15 -7 8 -9 15 -6
15 4 0 14 -7 22 -15z m-101 -35 c3 -6 -1 -7 -9 -4 -18 7 -21 14 -7 14 6 0 13
-4 16 -10z m-195 -170 c0 -5 -5 -10 -11 -10 -5 0 -7 5 -4 10 3 6 8 10 11 10 2
0 4 -4 4 -10z m10 -160 c0 -5 -5 -10 -11 -10 -5 0 -7 5 -4 10 3 6 8 10 11 10
2 0 4 -4 4 -10z m-86 -46 c3 -8 2 -12 -4 -9 -6 3 -10 10 -10 16 0 14 7 11 14
-7z m47 -95 c-5 -13 -10 -19 -10 -12 -1 15 10 45 15 40 3 -2 0 -15 -5 -28z
m1099 -673 c0 -2 -7 -7 -16 -10 -8 -3 -12 -2 -9 4 6 10 25 14 25 6z m283 -111
c-3 -9 -8 -14 -10 -11 -3 3 -2 9 2 15 9 16 15 13 8 -4z m-178 -95 c3 -6 -1 -7
-9 -4 -18 7 -21 14 -7 14 6 0 13 -4 16 -10z m-25 -94 c0 -3 -4 -8 -10 -11 -5
-3 -10 -1 -10 4 0 6 5 11 10 11 6 0 10 -2 10 -4z m-206 -31 c-7 -16 -24 -21
-24 -6 0 8 7 13 27 20 1 1 0 -6 -3 -14z m89 1 c4 -10 1 -13 -8 -9 -8 3 -12 9
-9 14 7 12 11 11 17 -5z m512 -36 c-3 -5 -12 -10 -18 -10 -7 0 -6 4 3 10 19
12 23 12 15 0z m-425 -140 c0 -5 -5 -10 -11 -10 -5 0 -7 5 -4 10 3 6 8 10 11
10 2 0 4 -4 4 -10z m182 -16 c-4 -22 -22 -44 -19 -23 2 8 6 19 10 26 4 6 2 14
-3 16 -6 3 -5 4 2 3 7 -2 11 -12 10 -22z m-331 -41 c13 -16 12 -17 -3 -4 -17
13 -22 21 -14 21 2 0 10 -8 17 -17z m284 -23 c3 -6 -1 -7 -9 -4 -18 7 -21 14
-7 14 6 0 13 -4 16 -10z m-158 -82 c-3 -8 -6 -5 -6 6 -1 11 2 17 5 13 3 -3 4
-12 1 -19z m98 -18 c-3 -5 -12 -10 -18 -10 -7 0 -6 4 3 10 19 12 23 12 15 0z
m155 -30 c0 -5 -2 -10 -4 -10 -3 0 -8 5 -11 10 -3 6 -1 10 4 10 6 0 11 -4 11
-10z m150 -20 c0 -5 -2 -10 -4 -10 -3 0 -8 5 -11 10 -3 6 -1 10 4 10 6 0 11
-4 11 -10z m-240 -74 c0 -2 -9 -6 -20 -9 -11 -3 -20 -1 -20 4 0 5 9 9 20 9 11
0 20 -2 20 -4z m-67 -13 c-7 -2 -19 -2 -25 0 -7 3 -2 5 12 5 14 0 19 -2 13 -5z
m120 -19 c-7 -19 -10 -18 -16 5 -3 13 -1 18 9 14 7 -2 10 -11 7 -19z m-326
-10 c-3 -3 -12 -4 -19 -1 -8 3 -5 6 6 6 11 1 17 -2 13 -5z m68 -16 c6 -4 2 -8
-7 -8 -10 0 -18 7 -18 17 0 9 3 12 8 7 4 -5 12 -12 17 -16z m208 -73 c-3 -9
-8 -14 -10 -11 -3 3 -2 9 2 15 9 16 15 13 8 -4z m77 9 c0 -8 -19 -13 -24 -6
-3 5 1 9 9 9 8 0 15 -2 15 -3z m-210 -49 c0 -2 -6 -5 -13 -8 -8 -3 -14 1 -14
8 0 7 6 11 14 8 7 -3 13 -6 13 -8z m65 -26 c-4 -5 -12 -9 -18 -8 -9 0 -8 2 1
6 6 2 9 10 6 15 -4 7 -2 8 5 4 6 -4 9 -12 6 -17z m-98 -25 c-3 -3 -12 -4 -19
-1 -8 3 -5 6 6 6 11 1 17 -2 13 -5z m148 -74 c3 -5 -1 -10 -10 -10 -9 0 -13 5
-10 10 3 6 8 10 10 10 2 0 7 -4 10 -10z m-81 -48 c3 -5 -1 -9 -9 -9 -8 0 -12
4 -9 9 3 4 7 8 9 8 2 0 6 -4 9 -8z"/>
<path d="M4795 7632 c-11 -4 -36 -18 -55 -33 -19 -14 -53 -31 -75 -38 -134
-45 -183 -129 -85 -145 31 -5 40 -10 36 -21 -3 -8 3 -17 16 -21 17 -5 19 -12
14 -44 -4 -24 0 -51 10 -75 12 -28 13 -44 5 -64 -6 -14 -13 -44 -17 -66 -4
-22 -14 -45 -22 -51 -11 -8 -13 -21 -8 -51 7 -40 27 -72 119 -193 26 -34 47
-68 47 -76 0 -8 5 -14 10 -14 6 0 10 26 10 58 1 70 32 121 104 168 26 18 57
41 69 52 17 16 37 21 84 23 59 2 66 6 165 74 l103 71 0 84 c0 73 2 85 18 88 9
2 17 -2 18 -10 1 -7 4 -2 8 12 10 31 -31 107 -89 167 -32 33 -40 49 -40 77 0
34 -2 36 -35 36 -19 0 -35 -4 -35 -10 0 -13 -33 -13 -64 1 -19 9 -34 8 -69 -4
-39 -13 -54 -13 -118 -1 -79 15 -93 16 -124 6z m192 -87 c0 -8 -4 -12 -9 -9
-5 3 -6 10 -3 15 9 13 12 11 12 -6z m198 -25 c3 -6 -1 -7 -9 -4 -18 7 -21 14
-7 14 6 0 13 -4 16 -10z m23 -85 c-3 -3 -9 2 -12 12 -6 14 -5 15 5 6 7 -7 10
-15 7 -18z m-263 -85 c3 -5 1 -10 -4 -10 -6 0 -11 5 -11 10 0 6 2 10 4 10 3 0
8 -4 11 -10z m295 -40 c0 -5 -5 -10 -11 -10 -5 0 -7 5 -4 10 3 6 8 10 11 10 2
0 4 -4 4 -10z m-139 -103 c-10 -9 -11 -8 -5 6 3 10 9 15 12 12 3 -3 0 -11 -7
-18z"/>
<path d="M6583 7335 c-81 -22 -147 -60 -204 -117 -53 -53 -116 -142 -139 -197
-12 -31 -14 -31 -83 -31 -142 0 -319 -79 -388 -172 -17 -24 -48 -77 -68 -118
-34 -72 -36 -80 -36 -180 0 -100 2 -109 34 -175 43 -87 149 -196 239 -243 34
-18 93 -39 130 -46 l67 -12 8 -170 c5 -105 18 -220 33 -304 23 -120 31 -144
75 -221 26 -47 63 -130 81 -185 17 -54 33 -101 35 -103 4 -6 442 -2 574 5
l117 7 5 47 c8 70 51 189 112 315 l54 110 -407 5 -407 5 -9 28 c-19 52 -22 52
464 55 l448 3 69 73 c78 81 83 95 83 220 0 44 4 87 8 93 4 7 43 24 86 38 181
59 274 150 349 342 34 88 31 223 -6 318 -34 87 -81 152 -149 206 -61 49 -170
101 -246 119 -52 12 -163 9 -239 -6 -30 -6 -33 -3 -77 64 -112 170 -251 243
-461 241 -55 0 -124 -7 -152 -14z"/>
<path d="M4163 7270 c-29 -12 -30 -36 -2 -43 31 -8 50 3 47 26 -4 24 -15 29
-45 17z"/>
<path d="M5315 7035 c-15 -20 -35 -28 -82 -37 -65 -12 -80 -28 -44 -48 33 -17
61 -11 84 16 12 15 33 37 45 50 13 13 22 28 20 34 -2 6 -12 -1 -23 -15z"/>
<path d="M5303 6935 c-14 -44 -2 -55 62 -55 67 0 79 9 71 51 -6 34 -6 34 -65
36 -58 1 -58 1 -68 -32z"/>
<path d="M5215 6080 c-11 -12 -19 -35 -19 -53 0 -29 30 -62 297 -326 163 -162
297 -301 297 -310 0 -28 -30 -61 -55 -61 -17 0 -94 73 -311 298 -158 163 -296
305 -307 315 -14 12 -29 16 -46 12 -34 -8 -51 -32 -51 -72 0 -37 57 -105 280
-338 154 -161 280 -312 280 -336 0 -39 -19 -59 -55 -59 -31 0 -44 12 -172 158
-76 86 -186 215 -243 286 -161 199 -202 240 -231 233 -13 -3 -35 -16 -48 -28
-19 -18 -22 -29 -19 -64 6 -53 48 -118 182 -277 58 -70 163 -201 233 -290 220
-283 313 -375 439 -436 76 -38 98 -42 224 -51 67 -5 118 -14 143 -25 23 -12
119 -106 262 -258 124 -132 225 -243 225 -247 0 -4 -55 -57 -123 -117 -179
-158 -465 -422 -591 -545 l-109 -106 -5 -56 c-6 -75 31 -156 90 -194 49 -33
124 -37 180 -10 36 17 51 32 179 172 35 38 98 106 139 150 95 103 333 366 385
428 44 52 66 58 93 26 44 -54 57 -68 105 -119 29 -30 108 -116 177 -190 68
-74 194 -208 281 -297 172 -177 195 -192 283 -179 93 14 181 112 173 192 -8
76 -53 124 -532 570 -82 76 -183 171 -224 210 l-75 72 102 108 c141 151 295
287 360 320 44 22 74 29 165 36 200 15 248 31 405 136 311 207 492 665 372
938 -25 59 -85 121 -144 151 -240 122 -711 -123 -900 -468 -70 -127 -106 -279
-106 -449 -1 -134 -11 -152 -177 -312 -227 -220 -269 -258 -284 -258 -9 0 -28
14 -45 31 -16 17 -111 105 -211 195 -266 240 -264 238 -283 418 -12 116 -14
128 -47 229 -33 104 -85 171 -234 302 -68 60 -194 173 -279 250 -365 332 -381
343 -425 295z"/>
<path d="M3789 5658 c-11 -7 -4 -18 30 -48 24 -22 49 -40 55 -40 6 -1 29 -28
51 -62 43 -66 42 -65 150 -73 58 -4 105 3 105 16 0 11 -82 59 -112 64 -12 3
-38 21 -56 40 -18 19 -41 35 -49 35 -9 0 -26 9 -38 20 -30 28 -119 60 -136 48z"/>
<path d="M4514 3475 c-3 -8 -3 -18 0 -23 14 -23 126 -24 126 -2 0 14 -61 40
-92 40 -16 0 -31 -6 -34 -15z"/>
</g>
</svg>
